<svg xmlns="http://www.w3.org/2000/svg" id="Layer_1" data-name="Layer 1" viewBox="0 0 500 500"><defs><style>.cls-1{fill:#444;}.cls-2{fill:#2d2d2d;}.cls-3{fill:#ccc;}.cls-4{fill:#a8a8a8;}.cls-5{fill:none;stroke:#000;stroke-linecap:round;stroke-linejoin:round;stroke-width:15px;}.cls-6{fill:#ddd;}.cls-7{fill:#d82f23;}</style></defs><rect class="cls-1" x="75.17" y="8.11" width="349.66" height="483.78" rx="25" ry="25"></rect><path class="cls-2" d="M399.83,8.11h-30a25,25,0,0,1,25,25V466.89a25,25,0,0,1-25,25h30a25,25,0,0,0,25-25V33.11A25,25,0,0,0,399.83,8.11Z"></path><path class="cls-3" d="M75.17,145.65V466.89a25,25,0,0,0,25,25H399.83a25,25,0,0,0,25-25V145.65Z"></path><path class="cls-4" d="M394.83,466.89a25,25,0,0,1-25,25h30a25,25,0,0,0,25-25V145.65h-30Z"></path><rect class="cls-5" x="75.17" y="8.11" width="349.66" height="483.78" rx="25" ry="25"></rect><rect class="cls-6" x="123.44" y="42.39" width="253.13" height="73.33" rx="7" ry="7"></rect><rect class="cls-5" x="123.44" y="42.39" width="253.13" height="73.33" rx="7" ry="7"></rect><rect class="cls-1" x="123.44" y="169.65" width="42.58" height="42.58" rx="7" ry="7"></rect><rect class="cls-1" x="193.62" y="169.65" width="42.58" height="42.58" rx="7" ry="7"></rect><rect class="cls-1" x="263.8" y="169.65" width="42.58" height="42.58" rx="7" ry="7"></rect><rect class="cls-1" x="333.99" y="169.65" width="42.58" height="42.58" rx="7" ry="7"></rect><rect class="cls-1" x="123.44" y="247.06" width="42.58" height="42.58" rx="7" ry="7"></rect><rect class="cls-1" x="193.62" y="247.06" width="42.58" height="42.58" rx="7" ry="7"></rect><rect class="cls-1" x="263.8" y="247.06" width="42.58" height="42.58" rx="7" ry="7"></rect><rect class="cls-1" x="333.99" y="247.06" width="42.58" height="42.58" rx="7" ry="7"></rect><rect class="cls-1" x="123.44" y="324.48" width="42.58" height="42.58" rx="7" ry="7"></rect><rect class="cls-1" x="193.62" y="324.48" width="42.58" height="42.58" rx="7" ry="7"></rect><rect class="cls-1" x="263.8" y="324.48" width="42.58" height="42.58" rx="7" ry="7"></rect><rect class="cls-1" x="123.44" y="401.89" width="42.58" height="42.58" rx="7" ry="7"></rect><rect class="cls-1" x="193.62" y="401.89" width="42.58" height="42.58" rx="7" ry="7"></rect><rect class="cls-1" x="263.8" y="401.89" width="42.58" height="42.58" rx="7" ry="7"></rect><rect class="cls-5" x="123.44" y="169.65" width="42.58" height="42.58" rx="7" ry="7"></rect><rect class="cls-5" x="193.62" y="169.65" width="42.58" height="42.58" rx="7" ry="7"></rect><rect class="cls-5" x="263.8" y="169.65" width="42.58" height="42.58" rx="7" ry="7"></rect><rect class="cls-5" x="333.99" y="169.65" width="42.58" height="42.58" rx="7" ry="7"></rect><rect class="cls-5" x="123.44" y="247.06" width="42.58" height="42.58" rx="7" ry="7"></rect><rect class="cls-5" x="193.62" y="247.06" width="42.58" height="42.58" rx="7" ry="7"></rect><rect class="cls-5" x="263.8" y="247.06" width="42.58" height="42.58" rx="7" ry="7"></rect><rect class="cls-5" x="333.99" y="247.06" width="42.58" height="42.58" rx="7" ry="7"></rect><rect class="cls-5" x="123.44" y="324.48" width="42.58" height="42.58" rx="7" ry="7"></rect><rect class="cls-5" x="193.62" y="324.48" width="42.58" height="42.58" rx="7" ry="7"></rect><rect class="cls-5" x="263.8" y="324.48" width="42.58" height="42.58" rx="7" ry="7"></rect><rect class="cls-5" x="123.44" y="401.89" width="42.58" height="42.58" rx="7" ry="7"></rect><rect class="cls-5" x="193.62" y="401.89" width="42.58" height="42.58" rx="7" ry="7"></rect><rect class="cls-5" x="263.8" y="401.89" width="42.58" height="42.58" rx="7" ry="7"></rect><rect class="cls-7" x="333.99" y="324.48" width="42.58" height="119.99" rx="7" ry="7"></rect><rect class="cls-5" x="333.99" y="324.48" width="42.58" height="119.99" rx="7" ry="7"></rect></svg>